<?xml version="1.0" encoding="UTF-8"?>
<svg id="_레이어_2" data-name="레이어 2" xmlns="http://www.w3.org/2000/svg" viewBox="0 0 24 31">
  <defs>
    <style>
      .cls-1 {
        fill: #534eeb;
      }

      .cls-2 {
        fill: #fff;
      }

      .cls-3 {
        fill: #eb504e;
      }
    </style>
  </defs>
  <g id="_레이어_1-2" data-name="레이어 1">
    <g>
      <path class="cls-3" d="M0,12.71C0,4.99,5.7,0,12,0s12,4.99,12,12.71c0,5.15-4,11.24-12,18.29C4.01,23.95,0,17.86,0,12.71Z"/>
      <path class="cls-1" d="M12,31C4.01,23.95,0,17.86,0,12.71c0,0,4.68,5.32,8.68,6.51s11.25,3.44,11.25,3.44c0,0-3.37,4.09-5.26,5.87-.93.88-2.67,2.46-2.67,2.46Z"/>
      <circle class="cls-2" cx="12" cy="12.28" r="4.5"/>
      <path class="cls-2" d="M11.97,22.1c4,.8,3.77,4.38,3.77,5.38,0,0,1.51-1.51,2.25-2.33s1.94-2.48,1.94-2.48c0-1.5-1.46-3.07-3.46-3.07-1.8,0-6,0-7-1-.8-.8.67-1.67,1.5-2-1,.17-3.4.8-5,2-2,1.5,1,2.5,6,3.5Z"/>
    </g>
  </g>
</svg>