<svg width="40" height="40" viewBox="0 0 40 40" fill="none" xmlns="http://www.w3.org/2000/svg">
<g clip-path="url(#clip0_141_169)">
<path d="M19.1406 7.96875L24.8438 0L27.5781 16.6406L40 20.3628L28.9062 23.3594L36.0156 34.5312L22.2656 28.75L20.3906 33.9062L15.625 29.6094L6.48438 40L7.73438 26.0938L1.71875 27.3438L9.53125 19.2969L0 3.51562L13.2031 11.0156L14.0625 5.625L17.5 10L19.1406 7.96875Z" fill="#EB504E"/>
<path d="M10.8594 14.0625L14.2969 18.9844L11.3281 22.1875L13.5156 22.2656L11.5625 28.3594L16.9531 23.9844L19.4531 27.4219L20.3906 21.9531L25.625 24.6094L23.5156 21.3281L26.9531 19.9219L22.5 18.9844L22.8906 8.98438L19.0625 16.5625L16.6406 13.8281L16.875 17.4219L10.8594 14.0625Z" fill="#FFD15C"/>
</g>
<defs>
<clipPath id="clip0_141_169">
<rect width="40" height="40" fill="white"/>
</clipPath>
</defs>
</svg>
