<svg width="74" height="24" viewBox="0 0 74 24" fill="none" xmlns="http://www.w3.org/2000/svg">
<path fill-rule="evenodd" clip-rule="evenodd" d="M36.286 1.21065C36.6471 0.929784 37.1527 0.929784 37.5138 1.21065L46.5138 8.21065C46.7574 8.4001 46.8999 8.69141 46.8999 9V20C46.8999 20.7957 46.5838 21.5587 46.0212 22.1213C45.4586 22.6839 44.6956 23 43.8999 23H29.8999C29.1043 23 28.3412 22.6839 27.7786 22.1213C27.216 21.5587 26.8999 20.7957 26.8999 20V9C26.8999 8.69141 27.0424 8.4001 27.286 8.21065L36.286 1.21065ZM28.8999 9.48908V20C28.8999 20.2652 29.0053 20.5196 29.1928 20.7071C29.3803 20.8946 29.6347 21 29.8999 21H43.8999C44.1651 21 44.4195 20.8946 44.607 20.7071C44.7945 20.5196 44.8999 20.2652 44.8999 20V9.48908L36.8999 3.26686L28.8999 9.48908Z" fill="#EB504E"/>
<path fill-rule="evenodd" clip-rule="evenodd" d="M32.8999 12C32.8999 11.4477 33.3476 11 33.8999 11H39.8999C40.4522 11 40.8999 11.4477 40.8999 12V22C40.8999 22.5523 40.4522 23 39.8999 23C39.3476 23 38.8999 22.5523 38.8999 22V13H34.8999V22C34.8999 22.5523 34.4522 23 33.8999 23C33.3476 23 32.8999 22.5523 32.8999 22V12Z" fill="#EB504E"/>
</svg>
