<svg width="24" height="24" viewBox="0 0 24 24" fill="none" xmlns="http://www.w3.org/2000/svg">
<path d="M2.65625 11.5343C2.65616 9.99346 3.03484 8.47637 3.75875 7.11734C4.48266 5.75831 5.52948 4.59927 6.80652 3.74283C8.08356 2.8864 9.55143 2.35899 11.0802 2.2073C12.6089 2.05562 14.1513 2.28433 15.5709 2.8732C16.9905 3.46206 18.2434 4.39292 19.2188 5.58334C20.1942 6.77376 20.8618 8.18703 21.1627 9.69802C21.4636 11.209 21.3885 12.7711 20.9439 14.246C20.4993 15.7209 19.6991 17.0631 18.6139 18.1538C18.5139 18.2543 18.4346 18.3737 18.3805 18.505C18.3264 18.6362 18.2986 18.7769 18.2988 18.919C18.2989 19.061 18.3269 19.2017 18.3813 19.3329C18.4356 19.4641 18.5151 19.5832 18.6154 19.6836C18.7156 19.7839 18.8346 19.8635 18.9655 19.9177C19.0964 19.972 19.2366 19.9998 19.3783 19.9997C19.5199 19.9996 19.6601 19.9715 19.7909 19.917C19.9217 19.8625 20.0405 19.7827 20.1406 19.6821C21.7464 18.068 22.8391 16.0127 23.2808 13.7758C23.7226 11.539 23.4934 9.22103 22.6222 7.11479C21.7511 5.00855 20.2771 3.20856 18.3865 1.94221C16.4958 0.675868 14.2734 0 12 0C9.72658 0 7.50417 0.675868 5.61354 1.94221C3.72292 3.20856 2.24893 5.00855 1.37778 7.11479C0.506642 9.22103 0.277445 11.539 0.719149 13.7758C1.16085 16.0127 2.25364 18.068 3.85944 19.6821C4.06169 19.8854 4.33616 19.9997 4.62246 20C4.90875 20.0003 5.18343 19.8865 5.38607 19.6836C5.5887 19.4807 5.70269 19.2054 5.70296 18.9183C5.70323 18.6311 5.58976 18.3556 5.3875 18.1524C4.52063 17.2836 3.83317 16.2519 3.36449 15.1163C2.89581 13.9806 2.65514 12.7634 2.65625 11.5343ZM6.96875 11.5343C6.96881 10.7049 7.1727 9.88824 7.56238 9.15666C7.95205 8.42509 8.5155 7.80114 9.20286 7.34001C9.89022 6.87888 10.6803 6.5948 11.5032 6.5129C12.3261 6.431 13.1564 6.5538 13.9207 6.87045C14.685 7.18709 15.3597 7.68781 15.8852 8.32831C16.4106 8.9688 16.7705 9.72932 16.9331 10.5426C17.0956 11.3558 17.0558 12.1967 16.8172 12.9909C16.5786 13.785 16.1485 14.5079 15.565 15.0957C15.4649 15.1962 15.3856 15.3155 15.3315 15.4468C15.2775 15.5781 15.2497 15.7188 15.2498 15.8608C15.25 16.0029 15.278 16.1435 15.3323 16.2747C15.3866 16.4059 15.4662 16.5251 15.5664 16.6254C15.6667 16.7258 15.7856 16.8054 15.9165 16.8596C16.0474 16.9138 16.1877 16.9417 16.3293 16.9416C16.471 16.9414 16.6112 16.9133 16.742 16.8588C16.8728 16.8043 16.9916 16.7245 17.0916 16.624C18.0944 15.6148 18.7765 14.3302 19.0519 12.9324C19.3272 11.5346 19.1835 10.0864 18.6388 8.77047C18.0941 7.45458 17.1728 6.33009 15.9914 5.53901C14.8099 4.74793 13.4212 4.32573 12.0007 4.32573C10.5802 4.32573 9.19153 4.74793 8.01008 5.53901C6.82863 6.33009 5.90738 7.45458 5.36266 8.77047C4.81795 10.0864 4.67419 11.5346 4.94956 12.9324C5.22492 14.3302 5.90705 15.6148 6.90981 16.624C7.11188 16.8271 7.38608 16.9413 7.67211 16.9416C7.95814 16.9418 8.23256 16.8281 8.435 16.6254C8.63744 16.4228 8.75133 16.1477 8.7516 15.8608C8.75187 15.574 8.6385 15.2987 8.43644 15.0957C7.49679 14.15 6.96903 12.8694 6.96875 11.5343ZM12 8.65062C11.2375 8.65062 10.5062 8.95444 9.96707 9.49523C9.4279 10.036 9.125 10.7695 9.125 11.5343C9.125 12.2991 9.4279 13.0326 9.96707 13.5734C10.5062 14.1142 11.2375 14.418 12 14.418C12.7625 14.418 13.4938 14.1142 14.0329 13.5734C14.5721 13.0326 14.875 12.2991 14.875 11.5343C14.875 10.7695 14.5721 10.036 14.0329 9.49523C13.4938 8.95444 12.7625 8.65062 12 8.65062Z" fill="#676D75"/>
</svg>
