<svg width="40" height="43" viewBox="0 0 40 43" fill="none" xmlns="http://www.w3.org/2000/svg">
<path d="M34.4615 24.893L36.5705 23.3656C37.0409 23.025 37.3567 22.5114 37.4486 21.9379C37.5404 21.3644 37.4006 20.7779 37.06 20.3074L37.0579 20.3045C36.7167 19.8331 36.2023 19.5165 35.6277 19.4244C35.0532 19.3323 34.4656 19.4721 33.9942 19.8132L35.7717 18.5268C36.0052 18.3578 36.2032 18.1445 36.3542 17.8991C36.5053 17.6536 36.6065 17.3808 36.6521 17.0962C36.6978 16.8117 36.6869 16.5209 36.6201 16.2405C36.5534 15.9601 36.4321 15.6956 36.2631 15.4621C35.9218 14.9906 35.4072 14.6739 34.8325 14.5817C34.2577 14.4896 33.6699 14.6295 33.1983 14.9708L31.4015 16.2714C31.6375 16.1005 31.8376 15.8849 31.9903 15.6367C32.143 15.3885 32.2453 15.1127 32.2914 14.825C32.3375 14.5373 32.3265 14.2433 32.259 13.9599C32.1914 13.6764 32.0687 13.409 31.8979 13.173C31.5552 12.6993 31.0395 12.3801 30.4627 12.2846C29.886 12.1892 29.2949 12.3253 28.8179 12.6634C24.4748 15.7424 16.3723 21.7287 16.3723 21.7287L4.87079 30.5308C4.38703 31.8453 4.23397 33.2586 4.42512 34.6462C4.61626 36.0338 5.14573 37.3531 5.96689 38.4878C6.95511 39.8533 8.32527 40.8959 9.90484 41.4842C11.4844 42.0726 13.2027 42.1804 14.8435 41.7941C17.4909 41.1758 20.0156 40.1169 22.312 38.6617C24.8104 37.0721 27.2265 35.3569 29.5512 33.5226L36.7126 27.8715C37.0961 27.5689 37.3457 27.1281 37.408 26.6436C37.4703 26.1591 37.3402 25.6695 37.0456 25.2798C36.7511 24.8902 36.3155 24.6314 35.8324 24.5592C35.3493 24.4869 34.8572 24.6068 34.4615 24.8932V24.893Z" fill="#F4AE7F"/>
<path d="M35.2374 14.6876L30.2735 18.3496L29.6626 17.5042L31.6356 16.0757C31.5619 16.1462 31.4836 16.2116 31.4011 16.2715L33.1979 14.9706C33.4887 14.7599 33.8267 14.6239 34.1823 14.5745C34.538 14.5251 34.9003 14.564 35.2374 14.6876Z" fill="#F4AE7F"/>
<path d="M36.0804 19.5477L31.4273 22.9797L30.8164 22.1352L34.2269 19.6662L34.2278 19.6653C34.5092 19.5115 34.8209 19.4212 35.141 19.4009C35.4611 19.3806 35.7817 19.4307 36.0804 19.5477Z" fill="#F4AE7F"/>
<path d="M32.6147 23.2948L29.657 26.0539L25.9429 29.5174C23.7775 31.537 21.5111 33.4456 19.1525 35.2359C18.0714 36.0558 16.9223 36.7819 15.7178 37.4065C14.5129 38.0309 13.2586 38.555 11.9677 38.9734C10.0834 39.5861 8.04448 39.5232 6.20152 38.7955C6.12066 38.6949 6.0425 38.5922 5.96703 38.4874C5.14579 37.3527 4.61625 36.0335 4.42511 34.646C4.23396 33.2585 4.38707 31.8452 4.87094 30.5308L16.3718 21.7288C16.3718 21.7288 18.9719 19.8079 22.0149 17.5825L26.5727 23.5598L27.534 22.7351L30.1251 20.5123C30.4959 20.1942 30.9765 20.0341 31.4639 20.0663C31.9514 20.0984 32.4068 20.3204 32.7325 20.6844C33.0582 21.0484 33.2283 21.5256 33.2063 22.0136C33.1843 22.5016 32.9719 22.9616 32.6147 23.2948Z" fill="#D4976E"/>
<path d="M25.5738 11.084L20.45 15.4791L22.3987 18.0343L22.2388 18.1708L19.6396 14.6166L26.2935 8.91064C26.3825 9.3041 26.3626 9.71439 26.2358 10.0973C26.109 10.4803 25.8801 10.8214 25.5738 11.084Z" fill="#F6BB92"/>
<path d="M36.4287 24.7546L31.7056 28.1741C31.5941 28.2547 31.4552 28.288 31.3192 28.2666C31.1832 28.2452 31.0612 28.1708 30.9799 28.0598C30.9392 28.0044 30.9099 27.9415 30.8937 27.8747C30.8774 27.8079 30.8746 27.7385 30.8852 27.6706C30.8959 27.6027 30.9199 27.5376 30.9558 27.479C30.9917 27.4204 31.0389 27.3695 31.0946 27.3293L34.4611 24.893C34.7435 24.6885 35.0774 24.5671 35.4252 24.5427C35.7729 24.5182 36.1206 24.5916 36.4287 24.7546Z" fill="#D4976E"/>
<path d="M23.0483 19.033L30.1154 12.9715C30.3342 12.7839 30.5139 12.555 30.6442 12.2979C30.7745 12.0409 30.8529 11.7606 30.875 11.4733C30.897 11.1859 30.8622 10.897 30.7726 10.6231C30.6829 10.3491 30.5402 10.0955 30.3526 9.87676C30.1649 9.65798 29.936 9.47831 29.679 9.34799C29.4219 9.21767 29.1417 9.13927 28.8543 9.11725C28.5669 9.09524 28.278 9.13004 28.0041 9.21967C27.7302 9.30931 27.4766 9.45202 27.2578 9.63966L20.4497 15.4791L23.0483 19.033Z" fill="#F6BB92"/>
<path d="M30.1152 12.9718L29.7801 13.2593L23.9699 18.2007C23.911 18.2512 23.8427 18.2897 23.7689 18.3138C23.6951 18.338 23.6172 18.3474 23.5398 18.3415C23.4624 18.3355 23.3869 18.3144 23.3176 18.2793C23.2484 18.2442 23.1867 18.1958 23.1362 18.1369C23.0856 18.078 23.0471 18.0096 23.023 17.9359C22.9988 17.8621 22.9895 17.7842 22.9954 17.7068C23.0013 17.6294 23.0224 17.5539 23.0575 17.4846C23.0926 17.4154 23.141 17.3537 23.1999 17.3031L30.825 10.811C30.9154 11.2017 30.897 11.6096 30.7719 11.9905C30.6468 12.3715 30.4196 12.7108 30.1152 12.9718Z" fill="#F6BB92"/>
<path d="M30.8162 14.0822C30.8099 14.0875 30.8046 14.0929 30.7983 14.0983L23.8578 20.0514L23.0483 19.0325L28.4506 14.4002C28.7719 14.1241 29.1664 13.9471 29.5863 13.8906C30.0062 13.8342 30.4334 13.9007 30.8162 14.0822Z" fill="#F6BB92"/>
<path d="M25.7826 22.4708C25.7826 22.4708 28.0584 20.4979 31.2793 17.734C32.1973 16.9463 32.3342 15.5578 31.5468 14.6396L31.5443 14.6368C31.1655 14.1951 30.6266 13.922 30.0464 13.8775C29.4661 13.8331 28.892 14.0209 28.4503 14.3998L23.0483 19.0328L25.7826 22.4708Z" fill="#F6BB92"/>
<path d="M15.1584 0.398002C15.1163 0.313531 15.0579 0.238184 14.9867 0.176264C14.9154 0.114344 14.8327 0.0670635 14.7432 0.0371213C14.6537 0.00717916 14.5591 -0.00483797 14.465 0.00175606C14.3708 0.00835009 14.2789 0.0334261 14.1944 0.0755525C14.1099 0.117679 14.0346 0.176031 13.9727 0.247276C13.9107 0.318521 13.8635 0.401265 13.8335 0.490783C13.8036 0.580301 13.7915 0.674839 13.7981 0.769002C13.8047 0.863164 13.8298 0.955105 13.8719 1.03958L14.9909 3.28333C15.0759 3.45393 15.2253 3.58375 15.4061 3.64423C15.4956 3.67417 15.5901 3.6862 15.6843 3.67961C15.7784 3.67302 15.8704 3.64795 15.9548 3.60583C16.0393 3.56371 16.1146 3.50536 16.1766 3.43412C16.2385 3.36288 16.2858 3.28014 16.3157 3.19063C16.3457 3.10112 16.3577 3.00658 16.3511 2.91242C16.3445 2.81826 16.3194 2.72632 16.2773 2.64185L15.1584 0.398002Z" fill="#A1DCFF"/>
<path d="M12.4783 6.70805L9.97601 6.55505C9.78573 6.54342 9.59863 6.60786 9.45586 6.73418C9.31309 6.86051 9.22635 7.03837 9.21472 7.22865C9.20309 7.41893 9.26753 7.60604 9.39385 7.74881C9.52018 7.89158 9.69804 7.97832 9.88832 7.98995L12.3909 8.14268C12.4059 8.14358 12.4207 8.14403 12.4358 8.14403C12.6226 8.14383 12.8019 8.07095 12.9359 7.94083C13.0698 7.81071 13.1479 7.63356 13.1535 7.4469C13.1591 7.26023 13.0919 7.07871 12.966 6.94077C12.8401 6.80283 12.6655 6.7193 12.4791 6.70787L12.4783 6.70805Z" fill="#A1DCFF"/>
<path d="M22.8789 0.811268C22.8002 0.759172 22.712 0.723092 22.6193 0.705088C22.5267 0.687085 22.4314 0.68751 22.3389 0.70634C22.2464 0.72517 22.1585 0.762036 22.0803 0.814832C22.002 0.867628 21.9349 0.935321 21.8828 1.01405L20.4992 3.10498C20.4471 3.1837 20.4111 3.27191 20.3931 3.36457C20.3751 3.45723 20.3755 3.55253 20.3943 3.64502C20.4132 3.73752 20.45 3.8254 20.5028 3.90365C20.5556 3.9819 20.6233 4.04899 20.702 4.10108C20.7807 4.15317 20.8689 4.18924 20.9616 4.20724C21.0543 4.22524 21.1496 4.22482 21.2421 4.20599C21.3346 4.18716 21.4224 4.15029 21.5007 4.0975C21.5789 4.04471 21.646 3.97702 21.6981 3.8983L23.0817 1.80737C23.1338 1.72865 23.1699 1.64044 23.1879 1.54778C23.2059 1.45512 23.2055 1.35981 23.1866 1.26732C23.1678 1.17482 23.1309 1.08694 23.0781 1.00869C23.0253 0.930437 22.9577 0.863354 22.8789 0.811268Z" fill="#A1DCFF"/>
<path d="M33.8515 37.948C33.7662 37.7778 33.6169 37.6484 33.4363 37.5882C33.2557 37.528 33.0586 37.5419 32.8882 37.6268C32.7178 37.7118 32.5881 37.8609 32.5276 38.0414C32.467 38.2219 32.4805 38.419 32.5652 38.5895L33.6841 40.8334C33.7262 40.9179 33.7846 40.9932 33.8558 41.0552C33.9271 41.1171 34.0098 41.1644 34.0993 41.1944C34.1889 41.2243 34.2834 41.2363 34.3776 41.2298C34.4718 41.2232 34.5637 41.1981 34.6482 41.156C34.7327 41.1138 34.8081 41.0555 34.87 40.9842C34.932 40.913 34.9793 40.8302 35.0092 40.7407C35.0392 40.6512 35.0512 40.5566 35.0446 40.4624C35.038 40.3683 35.0129 40.2763 34.9708 40.1918L33.8515 37.948Z" fill="#A1DCFF"/>
<path d="M38.9538 33.2412L36.4512 33.0884C36.3568 33.0823 36.262 33.0948 36.1725 33.1253C36.0829 33.1559 36.0002 33.2038 35.9292 33.2663C35.8582 33.3289 35.8002 33.4049 35.7586 33.4899C35.717 33.5749 35.6927 33.6673 35.6869 33.7618C35.6811 33.8562 35.694 33.9509 35.7249 34.0404C35.7559 34.1298 35.8041 34.2123 35.867 34.2831C35.9298 34.3538 36.0061 34.4114 36.0913 34.4527C36.1765 34.4939 36.2689 34.5179 36.3634 34.5233L38.8661 34.676C38.8811 34.6768 38.8959 34.6772 38.9111 34.6772C39.0978 34.677 39.2771 34.6041 39.411 34.474C39.545 34.3439 39.623 34.1667 39.6286 33.9801C39.6342 33.7934 39.567 33.6119 39.4411 33.474C39.3152 33.336 39.1406 33.2525 38.9542 33.2411L38.9538 33.2412Z" fill="#A1DCFF"/>
<path d="M28.1402 37.1301C28.0615 37.078 27.9732 37.0419 27.8806 37.0239C27.7879 37.0059 27.6926 37.0064 27.6001 37.0252C27.5076 37.044 27.4197 37.0809 27.3415 37.1337C27.2632 37.1865 27.1962 37.2542 27.1441 37.3329L25.7605 39.4238C25.7084 39.5025 25.6723 39.5907 25.6543 39.6834C25.6363 39.7761 25.6367 39.8713 25.6556 39.9638C25.6744 40.0563 25.7112 40.1442 25.764 40.2225C25.8168 40.3007 25.8845 40.3678 25.9632 40.4199C26.0419 40.472 26.1301 40.508 26.2228 40.526C26.3154 40.5441 26.4107 40.5436 26.5032 40.5248C26.5957 40.506 26.6836 40.4691 26.7618 40.4163C26.8401 40.3635 26.9072 40.2959 26.9593 40.2171L28.3429 38.1262C28.395 38.0475 28.431 37.9593 28.4491 37.8666C28.4671 37.774 28.4666 37.6787 28.4478 37.5862C28.429 37.4937 28.3921 37.4058 28.3394 37.3276C28.2866 37.2493 28.2189 37.1822 28.1402 37.1301Z" fill="#A1DCFF"/>
<path d="M36.0804 19.5477L31.4273 22.9797L30.8164 22.1352L34.2269 19.6662L34.2278 19.6653C34.5092 19.5115 34.8209 19.4212 35.141 19.4009C35.4611 19.3806 35.7817 19.4307 36.0804 19.5477Z" fill="#D4976E"/>
<path d="M35.2374 14.6876L31.0883 17.4734L30.8008 16.7877L31.6353 16.0757C31.5617 16.1462 31.4833 16.2116 31.4008 16.2715L33.1977 14.9706C33.4884 14.7599 33.8265 14.6239 34.1821 14.5745C34.5378 14.5251 34.9001 14.564 35.2372 14.6876H35.2374Z" fill="#D4976E"/>
<path d="M20.4497 15.4789L25.5738 11.084C26.0204 10.7009 26.2966 10.1561 26.3415 9.56943C26.3865 8.98275 26.1966 8.40224 25.8135 7.95561C25.433 7.51176 24.8927 7.23607 24.31 7.18851C23.7274 7.14095 23.1495 7.32535 22.702 7.70162C18.6278 11.1281 11.0461 17.7616 11.0461 17.7616L11.7401 15.6772C12.1642 14.4038 12.1593 13.0266 11.7264 11.7562C11.5532 11.2479 11.2172 10.811 10.7706 10.5129C10.3239 10.2149 9.79146 10.0725 9.25566 10.1076C8.73827 10.1416 8.24512 10.3393 7.84765 10.6723C7.45018 11.0053 7.16904 11.4561 7.04497 11.9596L6.63106 13.6397C6.19323 15.4165 5.38333 17.0803 4.25487 18.521C2.35702 20.9442 1.06779 23.7871 0.495267 26.8113L0.30965 27.4817C-0.0640766 28.8316 -0.10009 30.2527 0.204782 31.6197C0.509655 32.9868 1.14606 34.2579 2.05792 35.3211C3.15534 36.6006 4.60682 37.5267 6.22956 37.9829C7.85229 38.439 9.57373 38.4048 11.1771 37.8845C13.7644 37.0502 16.1932 35.7869 18.3618 34.1475C20.7206 32.3571 22.9872 30.4483 25.1527 28.4285L31.8239 22.2064C32.1761 21.8778 32.3878 21.4258 32.4146 20.9448C32.4414 20.4639 32.2812 19.9911 31.9676 19.6255C31.6453 19.2497 31.1868 19.0174 30.6932 18.9795C30.1995 18.9417 29.711 19.1015 29.3352 19.4238L25.7824 22.4709L20.4497 15.4789Z" fill="#F6BB92"/>
<path d="M25.574 11.084L20.9432 15.0562C20.8807 15.1098 20.8077 15.1498 20.7289 15.1735C20.6501 15.1973 20.5672 15.2043 20.4855 15.1941C20.4038 15.184 20.3252 15.1569 20.2546 15.1146C20.184 15.0723 20.123 15.0157 20.0755 14.9484C19.9907 14.8282 19.9537 14.6807 19.9718 14.5347C19.9899 14.3887 20.0618 14.2547 20.1735 14.1589L26.2936 8.91064C26.3827 9.3041 26.3627 9.71439 26.2359 10.0973C26.1091 10.4803 25.8802 10.8214 25.574 11.084Z" fill="#E0AA85"/>
<path d="M30.1152 12.9718L29.7801 13.2593L23.9699 18.2007C23.911 18.2512 23.8427 18.2897 23.7689 18.3138C23.6951 18.338 23.6172 18.3474 23.5398 18.3415C23.4624 18.3355 23.3869 18.3144 23.3176 18.2793C23.2484 18.2442 23.1867 18.1958 23.1362 18.1369C23.0856 18.078 23.0471 18.0096 23.023 17.9359C22.9988 17.8621 22.9895 17.7842 22.9954 17.7068C23.0013 17.6294 23.0224 17.5539 23.0575 17.4846C23.0926 17.4154 23.141 17.3537 23.1999 17.3031L30.825 10.811C30.9154 11.2017 30.897 11.6096 30.7719 11.9905C30.6468 12.3715 30.4196 12.7108 30.1152 12.9718Z" fill="#E0AA85"/>
<path d="M25.9926 20.7424L32.0127 15.5474C32.0971 15.8942 32.0954 16.2564 32.0079 16.6024C31.9204 16.9485 31.7496 17.2679 31.5105 17.5329L26.7699 21.6412C26.7082 21.6947 26.6361 21.7349 26.5582 21.7593C26.4802 21.7837 26.3981 21.7917 26.3169 21.783C26.2357 21.7742 26.1571 21.7487 26.0862 21.7082C26.0153 21.6677 25.9535 21.613 25.9046 21.5476C25.8147 21.4271 25.7738 21.2771 25.7901 21.1277C25.8065 20.9783 25.8788 20.8406 25.9926 20.7424Z" fill="#E0AA85"/>
</svg>
