<svg width="40" height="40" viewBox="0 0 40 40" fill="none" xmlns="http://www.w3.org/2000/svg">
<path d="M12.2143 33.9275C10.6293 32.1542 9.04429 30.3099 8.03558 28.1109C7.02695 25.77 6.73873 23.0745 7.24309 20.5209C7.74744 17.9672 8.90015 15.5554 10.5573 13.4984C10.4132 15.2717 11.0616 17.116 12.2864 18.4638C11.5659 15.0589 12.7187 11.3703 15.0242 8.67482C17.3297 5.97932 20.4998 4.20587 23.8139 3C22.1568 4.70243 21.9407 7.39793 22.5891 9.66788C23.2375 11.9378 24.6065 13.924 25.8312 15.981C27.056 18.0381 28.2088 20.1662 28.2809 22.507C28.9293 21.3011 29.6498 20.0952 30.0821 18.7475C30.5143 17.3997 30.7305 15.981 30.3703 14.6333C31.6671 16.1938 32.3876 17.7544 32.7478 19.7406C33.108 21.7268 33.036 23.7838 32.8199 25.77C32.5317 27.969 31.9553 30.2389 30.7306 32.0832C29.2896 34.2822 26.9841 35.8427 24.4625 36.6939C19.9954 37.4743 15.6005 36.8358 12.2143 33.9275Z" fill="#F3705A"/>
<path d="M17.6965 36.5471C23.5253 38.8553 29.2831 31.8587 26.0844 26.449C26.0844 26.3768 26.0132 26.3768 26.0132 26.3047C26.2976 29.262 25.5867 31.4259 24.2361 32.6522C24.947 30.9211 24.4494 28.9014 23.5964 27.1703C22.7434 25.5113 21.535 23.9966 20.6108 22.4097C19.6867 20.7508 18.9759 18.8754 19.4024 17C17.6964 18.2983 16.488 20.2458 15.9904 22.3376C15.4928 24.4293 15.7772 26.7375 16.7013 28.685C15.635 27.8916 14.8531 26.5933 14.782 25.2228C13.6446 26.5933 12.9338 28.3965 13.0049 30.1997C13.0049 33.0128 15.2085 35.5373 17.6965 36.5471Z" fill="#FFD15C"/>
</svg>
