<svg width="208" height="263" viewBox="0 0 208 263" fill="none" xmlns="http://www.w3.org/2000/svg">
<g clip-path="url(#clip0_140_109)">
<path d="M207.742 262.762H0.258186C0.115625 262.762 0 262.597 0 262.393C0 262.189 0.115625 262.024 0.258186 262.024H207.742C207.884 262.024 208 262.189 208 262.393C208 262.597 207.884 262.762 207.742 262.762Z" fill="#CBCBCB"/>
<path d="M151.445 62.389H150.002V22.8718C150.002 19.8683 149.411 16.8941 148.261 14.1192C147.112 11.3443 145.427 8.82297 143.304 6.69913C141.18 4.57529 138.659 2.89055 135.884 1.74111C133.109 0.591674 130.135 4.31364e-05 127.131 0L43.4076 0C37.3417 8.71163e-05 31.5243 2.40978 27.2351 6.69899C22.9459 10.9882 20.5362 16.8056 20.5361 22.8715V239.669C20.5361 245.735 22.9458 251.552 27.235 255.842C31.5242 260.131 37.3417 262.541 43.4076 262.541H127.131C133.197 262.541 139.015 260.131 143.304 255.842C147.593 251.552 150.003 245.735 150.003 239.669V90.5182H151.446L151.445 62.389Z" fill="#3F3D56"/>
<path d="M145.135 23.0322V239.509C145.137 241.75 144.698 243.97 143.842 246.041C142.986 248.113 141.731 249.995 140.147 251.581C138.564 253.167 136.684 254.426 134.614 255.285C132.544 256.145 130.326 256.588 128.084 256.59H43.9277C41.6862 256.592 39.4663 256.152 37.3948 255.296C35.3233 254.439 33.4407 253.183 31.8546 251.6C30.2685 250.016 29.0099 248.135 28.1506 246.065C27.2914 243.994 26.8483 241.775 26.8467 239.534V23.0322C26.8451 20.7907 27.285 18.5708 28.1413 16.4993C28.9976 14.4278 30.2536 12.5452 31.8374 10.9591C33.4213 9.373 35.3021 8.11438 37.3723 7.25512C39.4426 6.39585 41.6619 5.95277 43.9034 5.95118H54.1326C53.63 7.1833 53.4381 8.52014 53.5739 9.84389C53.7097 11.1676 54.169 12.4377 54.9113 13.5421C55.6537 14.6465 56.6563 15.5513 57.8308 16.1769C59.0052 16.8025 60.3156 17.1296 61.6463 17.1294H109.613C110.943 17.1296 112.254 16.8025 113.428 16.1769C114.603 15.5513 115.605 14.6465 116.348 13.5421C117.09 12.4377 117.549 11.1676 117.685 9.84389C117.821 8.52014 117.629 7.1833 117.126 5.95118H128.054C130.295 5.94915 132.515 6.38856 134.586 7.24431C136.657 8.10006 138.54 9.3554 140.126 10.9386C141.712 12.5219 142.971 14.4021 143.83 16.4718C144.69 18.5415 145.133 20.7602 145.135 23.0013V23.0322Z" fill="white"/>
<path d="M145.135 55.0596V47.6875H133.975V7.0061C132.08 6.30612 130.075 5.94908 128.054 5.95168H126.602V47.6875H87.8901V17.1299H80.5167V47.6875H48.0729V5.95168H43.9292C42.8453 5.95003 41.7638 6.05255 40.6995 6.25782V47.6875H26.8481V55.0612H40.6992V72.1166L26.8481 80.1131V88.6296L40.6992 80.6331V131.376H26.8481V138.75H40.6992V212.117H26.8481V219.491H40.6992V256.284C41.7635 256.49 42.845 256.592 43.9288 256.59H48.0726V219.49H80.5163V256.59H87.8901V219.49H126.602V256.59H128.054C130.075 256.593 132.08 256.236 133.975 255.536V219.49H145.135V212.117H133.975V180.042H145.035V172.668H133.975V138.75H145.135V131.376H133.975V86.3973H145.135V79.0245H133.975V55.0596H145.135ZM70.2415 55.0596L48.0729 67.8601V55.0596H70.2415ZM48.0726 76.373L80.5167 57.6404V131.376H48.0729L48.0726 76.373ZM48.0726 212.117V138.75H80.5163V212.117H48.0726ZM126.601 212.117H87.8901V180.042H126.602L126.601 212.117ZM126.601 172.668H87.8901V138.75H126.602L126.601 172.668ZM126.601 131.376H87.8901V86.3973H126.602L126.601 131.376ZM126.601 79.0239H87.8901V55.0596H126.602L126.601 79.0239Z" fill="#F2F2F2"/>
<path d="M136.342 55.1439C136.342 68.1623 112.771 97.1629 112.771 97.1629C112.771 97.1629 89.1987 68.1623 89.1987 55.1439C89.222 48.9076 91.7157 42.9346 96.1337 38.5331C100.552 34.1315 106.534 31.6602 112.77 31.6602C119.007 31.6602 124.989 34.1315 129.407 38.5331C133.825 42.9346 136.319 48.9076 136.342 55.1439H136.342Z" fill="#EB504E"/>
<path d="M126.71 54.1193C126.71 56.8759 125.892 59.5707 124.361 61.8628C122.829 64.155 120.652 65.9414 118.105 66.9964C115.559 68.0513 112.756 68.3273 110.052 67.7895C107.349 67.2517 104.865 65.9243 102.916 63.975C100.967 62.0257 99.6391 59.5422 99.1013 56.8384C98.5635 54.1347 98.8395 51.3322 99.8945 48.7854C100.949 46.2385 102.736 44.0617 105.028 42.5301C107.32 40.9986 110.015 40.1812 112.772 40.1812C114.601 40.1803 116.413 40.5398 118.104 41.2391C119.794 41.9385 121.33 42.964 122.625 44.2571C123.919 45.5502 124.946 47.0855 125.647 48.7755C126.348 50.4654 126.709 52.2769 126.71 54.1064V54.1193Z" fill="white"/>
<path d="M112.771 114.176C116.28 114.176 119.125 111.331 119.125 107.822C119.125 104.313 116.28 101.468 112.771 101.468C109.261 101.468 106.417 104.313 106.417 107.822C106.417 111.331 109.261 114.176 112.771 114.176Z" fill="#EB504E"/>
<path d="M158.28 125.907L150.53 128.652L151.638 119.624L156.941 119.135C156.407 121.421 156.903 123.677 158.28 125.907Z" fill="#9F616A"/>
<path d="M160.184 151.017L161.169 153.308L159.56 161.446L143.136 159.162L143.267 149.239L143.596 147.065L160.184 151.017Z" fill="#FFB6B6"/>
<path d="M169.331 256.484H163.808L161.673 237.483H169.331V256.484Z" fill="#9F616A"/>
<path d="M149.832 256.484H144.513L141.384 235.907H149.832L149.832 256.484Z" fill="#9F616A"/>
<path d="M133.181 259.939L142.357 256.138V253.655L144.803 253.695L149.793 253.939L151.096 254.001L152 262.762H148.789L148.218 260.309L146.75 262.762H134.269C133.891 262.782 133.516 262.689 133.191 262.495C132.866 262.301 132.605 262.016 132.442 261.674C132.329 261.344 132.342 260.984 132.478 260.664C132.615 260.343 132.866 260.085 133.183 259.938L133.181 259.939Z" fill="#090814"/>
<path d="M169.951 238.607C170.411 219.937 169.756 211.563 168.49 188.913C170.812 173.862 159.744 164.044 159.744 164.044L160.762 156.156L142.86 156.563L143.164 164.045L138.536 176.616C136.664 194.868 141.162 238.264 141.528 238.137C151.465 238.113 149.872 238.607 149.872 238.607C151.562 232.829 151.416 231.031 150.89 212.762L152.233 192.322L157.313 217.457L161.293 238.607C161.045 238.829 170.39 238.6 169.951 238.607Z" fill="#090814"/>
<path d="M163.942 112.347C163.943 113.798 163.587 115.227 162.907 116.508C162.226 117.79 161.242 118.884 160.039 119.696C158.837 120.508 157.454 121.013 156.011 121.165C154.568 121.318 153.11 121.114 151.764 120.572C150.419 120.029 149.227 119.165 148.293 118.054C147.36 116.943 146.713 115.62 146.41 114.201C146.107 112.783 146.157 111.311 146.556 109.916C146.954 108.521 147.689 107.245 148.696 106.2L148.739 106.158C148.81 106.083 148.881 106.009 148.955 105.938C148.956 105.938 148.957 105.938 148.958 105.938C148.958 105.937 148.958 105.936 148.958 105.935C149.06 105.861 149.154 105.777 149.238 105.684C150.435 104.011 151.791 102.61 155.078 103.485C159.81 104.744 163.942 107.45 163.942 112.347Z" fill="#090814"/>
<path d="M115.25 108.552C115.23 109.027 115.314 109.499 115.497 109.938C115.679 110.376 115.956 110.769 116.307 111.089C116.657 111.409 117.074 111.648 117.527 111.789C117.98 111.931 118.459 111.971 118.929 111.907L141.789 130.669L145.281 124.53L121.712 108.018C121.553 107.235 121.112 106.538 120.473 106.058C119.834 105.579 119.041 105.35 118.245 105.416C117.449 105.481 116.704 105.837 116.153 106.415C115.601 106.993 115.28 107.753 115.251 108.551L115.25 108.552Z" fill="#9F616A"/>
<path d="M151.442 136.202C151.442 136.202 150.697 137.746 147.801 135.552C145.482 133.795 134.412 126.214 131.953 123.009C131.437 123.243 130.859 123.297 130.308 123.165C129.758 123.033 129.267 122.722 128.913 122.28L134.961 116.458C136.859 116.586 136.878 117.856 136.715 118.585L141.577 120.516L154.236 127.789L152.001 135.095L151.442 136.202Z" fill="#E6E6E6"/>
<path d="M152.894 121.831C156.999 121.831 160.327 118.503 160.327 114.398C160.327 110.293 156.999 106.965 152.894 106.965C148.789 106.965 145.461 110.293 145.461 114.398C145.461 118.503 148.789 121.831 152.894 121.831Z" fill="#9F616A"/>
<path d="M142.756 151.266L142.679 147.12C142.378 146.706 139.849 143.09 140.416 139.478C140.557 138.621 140.873 137.802 141.343 137.073C141.814 136.343 142.43 135.718 143.152 135.237L144.151 132.911L145.63 129.473L149.958 126.897L150.557 125.676L151.05 124.662L157.695 124.178L158.493 126.046L158.521 126.049C159.874 126.357 161.144 126.952 162.246 127.794C163.456 128.712 164.437 129.897 165.112 131.258C165.786 132.619 166.136 134.117 166.135 135.636L166.098 140.455L166.091 141.144L166.087 141.813L162.362 151.839L162.221 152.228L160.76 156.157L161.011 156.571C161.281 157.022 161.38 157.555 161.292 158.073C161.203 158.591 160.932 159.061 160.527 159.396L160.353 161.853L160.036 161.765L158.238 161.264L142.754 161.852C142.754 161.852 141.833 152.495 142.756 151.266Z" fill="#E6E6E6"/>
<path d="M160.674 116.347C160.607 116.336 160.539 116.321 160.472 116.312C159.312 116.106 158.153 115.904 156.997 115.695L156.89 113.074L155.49 115.421C152.295 116.481 149.306 115.881 146.495 114.559C145.568 114.119 144.668 113.623 143.801 113.074C143.515 108.643 145.307 105.806 148.641 106.103C148.763 106.114 148.85 105.99 148.957 105.936C148.958 105.937 148.958 105.937 148.959 105.936C148.96 105.935 148.96 105.934 148.959 105.934C149.14 105.849 149.325 105.767 149.508 105.693C150.951 105.128 152.525 104.986 154.046 105.281C155.568 105.576 156.974 106.296 158.102 107.359C160.372 109.525 161.394 113.102 160.674 116.347Z" fill="#090814"/>
<path d="M155.831 103.697C155.905 103.953 156.052 104.182 156.254 104.356C156.456 104.531 156.704 104.642 156.968 104.678C157.968 105.914 159.112 107.222 160.68 107.47C161.128 107.565 161.595 107.485 161.985 107.245C162.033 107.215 162.077 107.18 162.116 107.141C162.487 106.788 162.516 106.079 162.076 105.814C164.047 106.596 165.197 108.722 165.489 110.818C165.781 112.915 165.376 115.034 165.111 117.134C164.846 119.234 164.73 121.44 165.555 123.392C166.529 125.691 168.768 127.346 171.21 127.873C171.428 127.92 176.848 127.588 178.467 126.721C180.68 125.554 182.522 123.773 184.03 121.778C181.432 123.621 177.841 124.311 175.015 122.854C172.486 121.545 170.991 118.798 170.338 116.029C169.684 113.26 172.433 109.859 172.135 107.029C171.837 104.199 168.419 101.795 166.551 99.6473C165.359 98.2772 163.6 97.2635 161.788 97.4343C161.175 97.4927 160.582 97.6823 160.05 97.9904C159.517 98.2985 159.057 98.7178 158.701 99.2197C158.345 99.7216 158.102 100.294 157.987 100.899C157.873 101.503 157.89 102.126 158.037 102.723C157.521 101.991 156.188 102.152 155.857 102.986C155.768 103.213 155.759 103.464 155.831 103.697Z" fill="#090814"/>
<path d="M160.472 116.311C160.472 116.311 158.271 108.092 148.831 106.195C148.821 106.192 148.785 106.177 148.739 106.156C148.707 106.137 148.674 106.119 148.641 106.104C148.747 106.043 148.85 105.99 148.956 105.937C148.957 105.937 148.958 105.937 148.959 105.937C148.959 105.936 148.959 105.935 148.959 105.934C149.051 105.849 149.144 105.764 149.239 105.683L149.508 105.693C149.508 105.693 158.979 104.192 160.472 116.311Z" fill="#EB504E"/>
<path d="M166.105 175.455C166.401 175.083 166.611 174.651 166.721 174.19C166.831 173.728 166.839 173.248 166.743 172.783C166.648 172.318 166.452 171.88 166.169 171.499C165.885 171.118 165.522 170.803 165.104 170.578L169.991 156.112L166.001 140.779L159.567 143.688L163.537 155.252L160.565 172.084C160.232 172.811 160.177 173.635 160.411 174.4C160.645 175.166 161.152 175.818 161.835 176.234C162.519 176.65 163.332 176.8 164.119 176.657C164.906 176.513 165.613 176.085 166.105 175.454V175.455Z" fill="#9F616A"/>
<path d="M160.215 128.149C160.215 128.149 161.726 127.338 162.777 130.817C163.619 133.602 169.345 148.723 169.448 152.761C170.002 152.876 170.502 153.172 170.87 153.603C171.237 154.033 171.451 154.574 171.478 155.139L163.162 156.289C161.702 155.069 162.434 154.03 162.994 153.536L160.162 148.738L154.241 135.786L159.111 128.714L160.215 128.149Z" fill="#E6E6E6"/>
<path d="M155.338 259.939L162.762 256.138V253.655L164.741 253.695L168.778 253.939L169.832 254.001L170.564 262.762H167.965L167.506 260.309L166.317 262.762H156.219C155.888 262.762 155.566 262.657 155.3 262.461C155.033 262.265 154.837 261.989 154.739 261.674C154.64 261.358 154.645 261.019 154.754 260.707C154.862 260.394 155.067 260.125 155.339 259.937L155.338 259.939Z" fill="#090814"/>
</g>
<defs>
<clipPath id="clip0_140_109">
<rect width="208" height="262.762" fill="white"/>
</clipPath>
</defs>
</svg>
