<svg width="40" height="40" viewBox="0 0 40 40" fill="none" xmlns="http://www.w3.org/2000/svg">
<g clip-path="url(#clip0_148_155)">
<path d="M5.9375 4.375H2.8125C2.29473 4.375 1.875 4.79473 1.875 5.3125C1.875 5.83027 2.29473 6.25 2.8125 6.25H5.9375C6.45527 6.25 6.875 5.83027 6.875 5.3125C6.875 4.79473 6.45527 4.375 5.9375 4.375Z" fill="#AD9990"/>
<path d="M37.1875 4.375H34.0625C33.5447 4.375 33.125 4.79473 33.125 5.3125C33.125 5.83027 33.5447 6.25 34.0625 6.25H37.1875C37.7053 6.25 38.125 5.83027 38.125 5.3125C38.125 4.79473 37.7053 4.375 37.1875 4.375Z" fill="#AD9990"/>
<path d="M33.75 6.25L34.375 8.125H36.875L37.5 6.25H33.75Z" fill="#A3C8BE"/>
<path d="M2.5 6.25L3.125 8.125H5.625L6.25 6.25H2.5Z" fill="#A3C8BE"/>
<path d="M4.375 0.625C4.87228 0.625 5.34919 0.822544 5.70083 1.17417C6.05246 1.52581 6.25 2.00272 6.25 2.5V4.375H2.5V2.5C2.5 2.00272 2.69754 1.52581 3.04917 1.17417C3.40081 0.822544 3.87772 0.625 4.375 0.625Z" fill="#94350F"/>
<path d="M35.625 0.625C36.1223 0.625 36.5992 0.822544 36.9508 1.17417C37.3025 1.52581 37.5 2.00272 37.5 2.5V4.375H33.75V2.5C33.75 2.00272 33.9475 1.52581 34.2992 1.17417C34.6508 0.822544 35.1277 0.625 35.625 0.625Z" fill="#94350F"/>
<path d="M34.375 8.125H36.875V10H34.375V8.125Z" fill="#AD9990"/>
<path d="M3.125 8.125H5.625V10H3.125V8.125Z" fill="#AD9990"/>
<path d="M3.125 18.75H5.625V21.25H3.125V18.75Z" fill="#AD9990"/>
<path d="M34.375 18.75H36.875V21.25H34.375V18.75Z" fill="#AD9990"/>
<path d="M5.9375 37.5H2.8125C2.29473 37.5 1.875 37.9197 1.875 38.4375C1.875 38.9553 2.29473 39.375 2.8125 39.375H5.9375C6.45527 39.375 6.875 38.9553 6.875 38.4375C6.875 37.9197 6.45527 37.5 5.9375 37.5Z" fill="#6E5F5C"/>
<path d="M37.1875 37.5H34.0625C33.5447 37.5 33.125 37.9197 33.125 38.4375C33.125 38.9553 33.5447 39.375 34.0625 39.375H37.1875C37.7053 39.375 38.125 38.9553 38.125 38.4375C38.125 37.9197 37.7053 37.5 37.1875 37.5Z" fill="#6E5F5C"/>
<path d="M34.375 30H36.875V37.5H34.375V30Z" fill="#AD9990"/>
<path d="M3.125 30H5.625V37.5H3.125V30Z" fill="#AD9990"/>
<path d="M36.25 18.75L39.375 15.625V18.75H36.25Z" fill="#FFC630"/>
<path d="M0.625 15L5.625 10H0.625V15Z" fill="#FFC630"/>
<path d="M0.625 26.25L5.625 21.25H0.625V26.25Z" fill="#FFC630"/>
<path d="M14.375 10L5.625 18.75H1.25L10 10H14.375Z" fill="#FFC630"/>
<path d="M23.125 10L14.375 18.75H10L18.75 10H23.125Z" fill="#FFC630"/>
<path d="M31.875 10L23.125 18.75H18.75L27.5 10H31.875Z" fill="#FFC630"/>
<path d="M39.375 10V11.25L31.875 18.75H27.5L36.25 10H39.375Z" fill="#FFC630"/>
<path d="M10 10L1.25 18.75H0.625V15L5.625 10H10Z" fill="black"/>
<path d="M18.75 10L10 18.75H5.625L14.375 10H18.75Z" fill="black"/>
<path d="M27.5 10L18.75 18.75H14.375L23.125 10H27.5Z" fill="black"/>
<path d="M36.25 10L27.5 18.75H23.125L31.875 10H36.25Z" fill="black"/>
<path d="M36.25 18.75L39.375 15.625V11.25L31.875 18.75H36.25Z" fill="black"/>
<path d="M36.25 30L39.375 26.875V30H36.25Z" fill="#FFC630"/>
<path d="M14.375 21.25L5.625 30H1.25L10 21.25H14.375Z" fill="#FFC630"/>
<path d="M23.125 21.25L14.375 30H10L18.75 21.25H23.125Z" fill="#FFC630"/>
<path d="M31.875 21.25L23.125 30H18.75L27.5 21.25H31.875Z" fill="#FFC630"/>
<path d="M39.375 21.25V22.5L31.875 30H27.5L36.25 21.25H39.375Z" fill="#FFC630"/>
<path d="M10 21.25L1.25 30H0.625V26.25L5.625 21.25H10Z" fill="black"/>
<path d="M18.75 21.25L10 30H5.625L14.375 21.25H18.75Z" fill="black"/>
<path d="M27.5 21.25L18.75 30H14.375L23.125 21.25H27.5Z" fill="black"/>
<path d="M36.25 21.25L27.5 30H23.125L31.875 21.25H36.25Z" fill="black"/>
<path d="M36.25 30L39.375 26.875V22.5L31.875 30H36.25Z" fill="black"/>
</g>
<defs>
<clipPath id="clip0_148_155">
<rect width="40" height="40" fill="white"/>
</clipPath>
</defs>
</svg>
