<svg width="122" height="20" viewBox="0 0 122 20" fill="none" xmlns="http://www.w3.org/2000/svg">
<path d="M4.45719 18.8313H4.19518e-05V1.19774H7.85576C9.62004 1.19774 11.0315 1.41132 12.09 1.83846C13.1486 2.2656 13.91 2.96203 14.3743 3.92774C14.8386 4.89346 15.0708 6.20274 15.0708 7.8556C15.0708 9.4156 14.8386 10.6877 14.3743 11.672C13.91 12.6377 13.1486 13.3527 12.09 13.817C11.0315 14.2813 9.62004 14.5135 7.85576 14.5135H4.45719V18.8313ZM7.13147 4.84703H4.45719V10.8642H7.13147C8.45004 10.8642 9.33219 10.6413 9.7779 10.1956C10.2236 9.74989 10.4465 8.96989 10.4465 7.8556C10.4465 6.79703 10.2236 6.0356 9.7779 5.57132C9.33219 5.08846 8.45004 4.84703 7.13147 4.84703ZM29.3887 18.3856C28.8687 18.5713 28.1444 18.7385 27.2158 18.887C26.3058 19.017 25.2194 19.082 23.9565 19.082C22.3594 19.082 20.9944 18.8777 19.8615 18.4692C18.7472 18.042 17.9022 17.327 17.3265 16.3242C16.7508 15.3027 16.463 13.8913 16.463 12.0899C16.463 9.63846 17.0201 7.86489 18.1344 6.76917C19.2672 5.67346 21.013 5.1256 23.3715 5.1256C25.0615 5.1256 26.3894 5.36703 27.3551 5.84989C28.3394 6.33274 29.0358 7.01989 29.4444 7.91132C29.8715 8.78417 30.0851 9.82417 30.0851 11.0313C30.0851 11.3842 30.0665 11.7649 30.0294 12.1735C30.0108 12.582 29.9644 12.9813 29.8901 13.3713L29.7787 13.4827H20.6137C20.7437 14.2999 21.1244 14.8385 21.7558 15.0985C22.4058 15.3585 23.4551 15.4885 24.9037 15.4885C25.8694 15.4885 26.668 15.4699 27.2994 15.4327C27.9494 15.377 28.6087 15.3027 29.2772 15.2099L29.3887 15.2935V18.3856ZM26.213 10.5577C26.213 10.112 26.1387 9.73132 25.9901 9.4156C25.8601 9.08132 25.5908 8.8306 25.1822 8.66346C24.7737 8.47775 24.1701 8.38489 23.3715 8.38489C22.2015 8.38489 21.4308 8.58917 21.0594 8.99774C20.7065 9.38774 20.5301 9.90774 20.5301 10.5577H26.213ZM37.6083 5.1256C39.3911 5.1256 40.8304 5.31132 41.9261 5.68274C43.0218 6.05417 43.8204 6.74132 44.3218 7.74417C44.8418 8.72846 45.1018 10.1585 45.1018 12.0342V18.8313H41.0626L40.9233 17.5499H40.8397C40.4868 18.0142 39.939 18.3856 39.1961 18.6642C38.4533 18.9427 37.4876 19.082 36.299 19.082C33.0861 19.082 31.4797 17.5777 31.4797 14.5692C31.4797 13.2877 31.8976 12.2849 32.7333 11.5606C33.5876 10.8177 34.9247 10.4463 36.7447 10.4463H40.8676C40.7376 9.66632 40.4033 9.14632 39.8647 8.88632C39.3261 8.60774 38.4068 8.46846 37.1068 8.46846C36.2897 8.46846 35.4818 8.53346 34.6833 8.66346C33.9033 8.77489 33.2161 8.90489 32.6218 9.05346L32.5383 8.99774L32.5661 5.76632C32.9376 5.65489 33.4111 5.55274 33.9868 5.45989C34.5626 5.34846 35.1661 5.26489 35.7976 5.20917C36.4476 5.15346 37.0511 5.1256 37.6083 5.1256ZM37.4411 15.7949C38.5926 15.7949 39.4561 15.6556 40.0318 15.377C40.6076 15.0799 40.9047 14.6156 40.9233 13.9842V13.2877H37.7754C36.9583 13.2877 36.3826 13.4085 36.0483 13.6499C35.7326 13.8727 35.5747 14.1792 35.5747 14.5692C35.5747 15.0335 35.7418 15.3585 36.0761 15.5442C36.4104 15.7113 36.8654 15.7949 37.4411 15.7949ZM58.5734 14.9035V18.5249C58.1091 18.7106 57.422 18.8499 56.512 18.9427C55.602 19.0356 54.6362 19.082 53.6148 19.082C52.1477 19.082 50.922 18.8777 49.9377 18.4692C48.972 18.0606 48.2477 17.3549 47.7648 16.352C47.3005 15.3492 47.0591 13.9563 47.0405 12.1735C47.0405 10.3349 47.2912 8.90489 47.7927 7.88346C48.3127 6.86203 49.0648 6.14703 50.0491 5.73846C51.0334 5.32989 52.2127 5.1256 53.587 5.1256C54.4041 5.1256 55.2677 5.18132 56.1777 5.29274C57.0877 5.40417 57.8305 5.55274 58.4062 5.73846L58.4341 9.47132L58.3505 9.52703C57.7934 9.4156 57.1991 9.33203 56.5677 9.27632C55.9362 9.2206 55.3141 9.19274 54.7012 9.19274C53.457 9.19274 52.5934 9.42489 52.1105 9.88917C51.6277 10.3535 51.3862 11.1335 51.3862 12.2292C51.3862 13.0649 51.4884 13.687 51.6927 14.0956C51.897 14.5042 52.2405 14.7735 52.7234 14.9035C53.2062 15.0335 53.8655 15.0985 54.7012 15.0985C55.3512 15.0985 55.9734 15.0706 56.5677 15.0149C57.162 14.9592 57.7934 14.8942 58.462 14.8199L58.5734 14.9035ZM73.0243 18.3856C72.5043 18.5713 71.78 18.7385 70.8514 18.887C69.9414 19.017 68.855 19.082 67.5921 19.082C65.995 19.082 64.63 18.8777 63.4971 18.4692C62.3829 18.042 61.5379 17.327 60.9621 16.3242C60.3864 15.3027 60.0986 13.8913 60.0986 12.0899C60.0986 9.63846 60.6557 7.86489 61.77 6.76917C62.9029 5.67346 64.6486 5.1256 67.0071 5.1256C68.6971 5.1256 70.025 5.36703 70.9907 5.84989C71.975 6.33274 72.6714 7.01989 73.08 7.91132C73.5071 8.78417 73.7207 9.82417 73.7207 11.0313C73.7207 11.3842 73.7021 11.7649 73.665 12.1735C73.6464 12.582 73.6 12.9813 73.5257 13.3713L73.4143 13.4827H64.2493C64.3793 14.2999 64.76 14.8385 65.3914 15.0985C66.0414 15.3585 67.0907 15.4885 68.5393 15.4885C69.505 15.4885 70.3036 15.4699 70.935 15.4327C71.585 15.377 72.2443 15.3027 72.9129 15.2099L73.0243 15.2935V18.3856ZM69.8486 10.5577C69.8486 10.112 69.7743 9.73132 69.6257 9.4156C69.4957 9.08132 69.2264 8.8306 68.8179 8.66346C68.4093 8.47775 67.8057 8.38489 67.0071 8.38489C65.8371 8.38489 65.0664 8.58917 64.695 8.99774C64.3421 9.38774 64.1657 9.90774 64.1657 10.5577H69.8486Z" fill="#EB504E"/>
<path d="M80.5474 18.8313H76.0903V0.0834583H80.5474V18.8313ZM88.1044 0.222744C88.1601 0.891316 88.1879 1.44846 88.1879 1.89417C88.1879 2.15417 88.1786 2.42346 88.1601 2.70203C88.1601 2.96203 88.1415 3.25917 88.1044 3.59346C87.7144 3.66774 87.3336 3.72346 86.9622 3.7606C86.5908 3.79774 86.2194 3.81632 85.8479 3.81632C85.4951 3.81632 85.1329 3.79774 84.7615 3.7606C84.4086 3.72346 84.0465 3.66774 83.6751 3.59346C83.6379 3.27774 83.6101 2.98989 83.5915 2.72989C83.5729 2.45132 83.5636 2.18203 83.5636 1.92203C83.5636 1.6806 83.5729 1.4206 83.5915 1.14203C83.6101 0.863458 83.6379 0.55703 83.6751 0.222744C84.0465 0.129887 84.4179 0.0741727 84.7894 0.0556015C85.1794 0.018458 85.5601 -0.000113707 85.9315 -0.000113707C86.2844 -0.000113707 86.6372 0.018458 86.9901 0.0556015C87.3615 0.0741727 87.7329 0.129887 88.1044 0.222744ZM88.1044 18.8313H83.6472V5.26489H88.1044V18.8313ZM95.6458 18.8313H91.1887V5.26489H95.4229L95.6458 7.74417H95.7294C95.9894 6.90846 96.4537 6.26774 97.1222 5.82203C97.7908 5.35774 98.7194 5.1256 99.908 5.1256C101.524 5.1256 102.712 5.5806 103.474 6.4906C104.254 7.4006 104.644 8.97917 104.644 11.2263V18.8313H100.187L100.159 12.0899C100.159 11.0499 100.001 10.307 99.6851 9.86132C99.3694 9.4156 98.7751 9.19274 97.9022 9.19274C97.0851 9.19274 96.5094 9.39703 96.1751 9.8056C95.8408 10.1956 95.6644 10.8735 95.6458 11.8392V18.8313ZM112.159 18.8313H107.702V0.0834583H112.159V11.0035H112.214L115.724 5.26489H120.627V5.37632L116.504 11.7835V11.8949L121.296 18.8313H116.17L112.242 12.5635L112.159 12.5356V18.8313Z" fill="#534EEB"/>
</svg>
