<svg width="40" height="40" viewBox="0 0 40 40" fill="none" xmlns="http://www.w3.org/2000/svg">
<g clip-path="url(#clip0_145_112)">
<path d="M20.7515 15.5859H18.9546C18.3084 15.5859 17.7827 16.1116 17.7827 16.7578V23.2422C17.7827 23.8884 18.3084 24.4141 18.9546 24.4141H20.7515C21.3976 24.4141 21.9233 23.8884 21.9233 23.2422V16.7578C21.9233 16.1116 21.3976 15.5859 20.7515 15.5859Z" fill="#EB504E"/>
<path d="M20 0C8.97195 0 0 8.97195 0 20C0 31.028 8.97195 40 20 40C31.028 40 40 31.028 40 20C40 8.97195 31.028 0 20 0ZM12.5732 25.8799C11.8378 26.4424 10.8578 26.7516 9.81156 26.7516C9.80359 26.7516 9.79578 26.7516 9.78781 26.7516C7.66227 26.742 5.40328 25.4157 5.40328 22.9765C5.40328 22.3293 5.92797 21.8046 6.57516 21.8046C7.22234 21.8046 7.74703 22.3293 7.74703 22.9765C7.74703 24.0126 9.00523 24.4043 9.79828 24.4078C9.80211 24.4078 9.80609 24.4079 9.81008 24.4079C10.2508 24.4079 11.6217 24.2984 11.6337 22.9545C11.6418 22.0625 11.0582 21.7191 9.18008 21.0748C9.11539 21.0527 8.9143 20.9884 8.87828 20.9756C7.71016 20.563 5.27961 19.7043 5.30359 17.0183C5.31422 15.8299 5.81297 14.7984 6.70781 14.1138C7.44875 13.547 8.43531 13.2367 9.4932 13.2422C11.6187 13.2517 13.8777 14.578 13.8777 17.0173C13.8777 17.6645 13.353 18.1891 12.7059 18.1891C12.0587 18.1891 11.534 17.6645 11.534 17.0173C11.534 15.9812 10.2758 15.5895 9.48273 15.5859C9.05719 15.581 7.65938 15.6831 7.64727 17.0393C7.64125 17.7087 7.90602 18.1179 9.43961 18.6862C9.45305 18.6904 9.78625 18.805 9.94063 18.858C10.8212 19.16 11.7317 19.4723 12.4858 20.0217C13.4866 20.7509 13.9885 21.7447 13.9775 22.9754C13.9668 24.1638 13.4681 25.1953 12.5732 25.8799ZM24.2668 23.2422C24.2668 25.1807 22.6897 26.7578 20.7512 26.7578H18.9543C17.0158 26.7578 15.4387 25.1807 15.4387 23.2422V16.7578C15.4387 14.8193 17.0158 13.2422 18.9543 13.2422H20.7512C22.6897 13.2422 24.2668 14.8193 24.2668 16.7578V23.2422ZM33.2921 25.8799C32.5567 26.4424 31.5767 26.7516 30.5305 26.7516C30.5225 26.7516 30.5147 26.7516 30.5067 26.7516C28.3812 26.742 26.1222 25.4157 26.1222 22.9765C26.1222 22.3293 26.6469 21.8046 27.2941 21.8046C27.9413 21.8046 28.4659 22.3293 28.4659 22.9765C28.4659 24.0126 29.7241 24.4043 30.5172 24.4078C30.9458 24.4077 32.3405 24.3106 32.3527 22.9545C32.3607 22.0625 31.7771 21.7191 29.899 21.0748C29.8343 21.0527 29.6332 20.9884 29.5972 20.9756C28.4291 20.563 25.9985 19.7044 26.0226 17.0183C26.0332 15.8299 26.532 14.7984 27.4268 14.1138C28.1622 13.5513 29.1421 13.2421 30.1884 13.2421C30.1963 13.2421 30.2042 13.2422 30.2122 13.2422C32.3377 13.2517 34.5967 14.578 34.5967 17.0173C34.5967 17.6645 34.072 18.1891 33.4248 18.1891C32.7777 18.1891 32.253 17.6645 32.253 17.0173C32.253 15.9812 30.9948 15.5895 30.2017 15.5859C29.7712 15.5856 28.3784 15.6831 28.3663 17.0393C28.3602 17.7087 28.625 18.1179 30.1585 18.6862C30.172 18.6904 30.5052 18.805 30.6595 18.858C31.5401 19.16 32.4506 19.4723 33.2047 20.0217C34.2055 20.7509 34.7074 21.7447 34.6964 22.9755C34.6857 24.1638 34.187 25.1953 33.2921 25.8799Z" fill="#EB504E"/>
</g>
<defs>
<clipPath id="clip0_145_112">
<rect width="40" height="40" fill="white"/>
</clipPath>
</defs>
</svg>
