<svg width="11" height="14" viewBox="0 0 11 14" fill="none" xmlns="http://www.w3.org/2000/svg">
<path d="M5.1006 0.5C4.57767 0.5 4.07617 0.678576 3.7064 0.996443C3.33664 1.31431 3.12891 1.74543 3.12891 2.19496V6.71487C3.12891 7.1644 3.33664 7.59552 3.7064 7.91339C4.07617 8.23126 4.57767 8.40983 5.1006 8.40983C5.62352 8.40983 6.12503 8.23126 6.4948 7.91339C6.86456 7.59552 7.07229 7.1644 7.07229 6.71487V2.19496C7.07229 1.74543 6.86456 1.31431 6.4948 0.996443C6.12503 0.678576 5.62352 0.5 5.1006 0.5Z" stroke="#616670" stroke-linecap="round" stroke-linejoin="round"/>
<path d="M9.70123 5.58496V6.71494C9.70123 7.76385 9.21653 8.76979 8.35374 9.51148C7.49096 10.2532 6.32078 10.6699 5.10062 10.6699C3.88046 10.6699 2.71027 10.2532 1.84749 9.51148C0.984706 8.76979 0.5 7.76385 0.5 6.71494V5.58496" stroke="#616670" stroke-linecap="round" stroke-linejoin="round"/>
<path d="M5.10059 10.6694V12.9294" stroke="#616670" stroke-linecap="round" stroke-linejoin="round"/>
<path d="M2.47168 12.9302H7.72953" stroke="#616670" stroke-linecap="round" stroke-linejoin="round"/>
</svg>
