<svg width="40" height="40" viewBox="0 0 40 40" fill="none" xmlns="http://www.w3.org/2000/svg">
<path d="M17.2654 5.31275L1.91409 31.9C1.63679 32.3801 1.49077 32.9248 1.49072 33.4792C1.49067 34.0337 1.63659 34.5784 1.91379 35.0586C2.191 35.5387 2.58974 35.9375 3.06991 36.2147C3.55009 36.4919 4.09478 36.6378 4.64923 36.6378H35.3493C35.9038 36.6378 36.4484 36.4919 36.9286 36.2147C37.4088 35.9375 37.8075 35.5387 38.0847 35.0586C38.3619 34.5784 38.5079 34.0337 38.5078 33.4792C38.5078 32.9248 38.3617 32.3801 38.0844 31.9L22.7348 5.31275C22.4577 4.83271 22.059 4.43409 21.579 4.15694C21.0989 3.87979 20.5544 3.73389 20.0001 3.73389C19.4458 3.73389 18.9012 3.87979 18.4212 4.15694C17.9412 4.43409 17.5425 4.83271 17.2654 5.31275Z" fill="#EE404C"/>
<path d="M20.2002 13.5122H19.7998C18.8139 13.5122 18.0146 14.3114 18.0146 15.2973V23.8299C18.0146 24.8158 18.8139 25.615 19.7998 25.615H20.2002C21.1861 25.615 21.9853 24.8158 21.9853 23.8299V15.2973C21.9853 14.3114 21.1861 13.5122 20.2002 13.5122Z" fill="#FFF7ED"/>
<path d="M20 32.3823C21.0965 32.3823 21.9853 31.4934 21.9853 30.397C21.9853 29.3005 21.0965 28.4116 20 28.4116C18.9035 28.4116 18.0146 29.3005 18.0146 30.397C18.0146 31.4934 18.9035 32.3823 20 32.3823Z" fill="#FFF7ED"/>
</svg>
