<svg width="40" height="40" viewBox="0 0 40 40" fill="none" xmlns="http://www.w3.org/2000/svg">
<g clip-path="url(#clip0_148_234)">
<path d="M29.822 10.6698H25.6123L26.4624 6.54334L27.9613 5.05713H29.1896C29.5389 5.05713 29.822 5.3403 29.822 5.68952V10.6698Z" fill="#FC5B5B"/>
<path d="M25.6123 5.69V10.6703H27.9613V5.05762H26.2447C25.8955 5.05753 25.6123 5.34071 25.6123 5.69Z" fill="#E64040"/>
<path d="M29.8221 23.5957V12.0116L19.9998 6.47168L11.9103 11.9204L11.8726 23.5957L19.9998 26.0397L29.8221 23.5957Z" fill="#F3F0F3"/>
<path d="M13.2098 13.6371L22.7103 8.2786L20 6.47168L10.1777 12.0116V23.5957L12.8881 24.2701V14.1879C12.8881 13.9597 13.0111 13.7492 13.2098 13.6371Z" fill="#E2DEE2"/>
<path d="M32.6268 14.9011C32.3945 14.9011 32.159 14.8437 31.9415 14.7229L19.9997 8.08857L8.05781 14.7228C7.37517 15.1019 6.51433 14.8559 6.13521 14.1735C5.75601 13.4908 6.00191 12.63 6.68455 12.2508L19.313 5.23498C19.74 4.99785 20.2592 4.99785 20.6864 5.23498L33.3148 12.2508C33.9974 12.63 34.2434 13.4908 33.8642 14.1735C33.6057 14.6387 33.1237 14.9011 32.6268 14.9011Z" fill="#77656E"/>
<path d="M22.1735 19.0891H17.8257C17.4764 19.0891 17.1934 18.8059 17.1934 18.4567V14.109C17.1934 13.7597 17.4765 13.4766 17.8257 13.4766H22.1735C22.5228 13.4766 22.8059 13.7597 22.8059 14.109V18.4567C22.8059 18.806 22.5227 19.0891 22.1735 19.0891Z" fill="#FEE45A"/>
<path d="M0.282151 34.0131C1.83203 32.4632 4.41841 31.8424 5.96829 33.3923L6.03547 33.4669C7.4994 35.0936 10.0499 35.0936 11.5139 33.4669L11.6596 33.305C13.0901 31.7155 15.5718 31.6829 17.0436 33.2343C18.5924 34.8668 21.1703 34.9375 22.8062 33.3924L22.8063 33.3923C24.3562 31.8424 26.8691 31.8424 28.4189 33.3923C29.9688 34.9422 32.4817 34.9422 34.0315 33.3923L34.112 33.2986C35.5776 31.5885 38.2373 31.6336 39.6442 33.3923V33.3924C40.4192 34.1673 41.9815 33.5048 42.4505 32.7479V28.2353C41.827 27.2003 40.4192 26.041 39.6442 25.2661C38.1915 23.6318 35.7379 23.5596 34.1918 25.1058L34.0315 25.266C32.4817 26.8159 29.9688 26.8159 28.4189 25.266C26.869 23.7161 24.3562 23.7161 22.8063 25.266L22.5729 25.4865C21.0659 26.9097 18.6912 26.8445 17.2645 25.3408C15.7226 23.7156 13.1651 23.6819 11.581 25.266L11.5809 25.2661C10.0311 26.8159 7.51826 26.8159 5.96838 25.2661L5.96829 25.266C4.41841 23.7161 1.90561 23.7161 0.355729 25.266L0.355641 25.2661C-0.419343 26.041 -1.61563 27.0921 -2.45068 28.2353V32.7479C-2.45068 32.7479 -0.492833 34.7881 0.282151 34.0131Z" fill="#64B9FC"/>
<path d="M0.355642 27.0725C1.90552 25.5226 4.41832 25.5226 5.9682 27.0725C7.51809 28.6224 10.031 28.6224 11.5809 27.0725L11.8079 26.8454C13.2672 25.3862 15.6232 25.4172 17.0435 26.9144C18.5923 28.5469 21.1702 28.6176 22.8062 27.0725L22.8062 27.0724C24.3561 25.5225 26.869 25.5225 28.4188 27.0724C29.9687 28.6223 32.4816 28.6223 34.0315 27.0724L34.1917 26.9122C35.7378 25.3661 38.1914 25.4382 39.644 27.0724C40.419 27.8473 41.4346 28.2349 42.4503 28.2349V24.3106C42.4503 23.994 42.2158 23.7281 41.9021 23.6846C41.0761 23.57 40.2792 23.1951 39.644 22.56C38.1913 20.9258 35.7377 20.8536 34.1916 22.3998L34.0315 22.5599C32.4817 24.1098 29.9688 24.1098 28.4189 22.5599C26.869 21.01 24.3562 21.01 22.8063 22.5599L22.8062 22.56C21.2181 24.0599 18.7313 24.0457 17.1604 22.5278L17.1442 22.5121C15.5873 21.0078 13.1119 21.0291 11.581 22.5599H11.5809C10.0311 24.1098 7.51826 24.1098 5.96838 22.5599C4.4185 21.01 1.90561 21.01 0.355729 22.5599C-0.279465 23.1951 -1.07637 23.5699 -1.90249 23.6845C-2.21618 23.7281 -2.45068 23.994 -2.45068 24.3106V28.2349C-1.43497 28.2349 -0.419343 27.8475 0.355642 27.0725Z" fill="#8DCAFC"/>
<path d="M42.4502 32.7483C41.4345 32.7483 40.4189 32.3608 39.644 31.5858L39.6439 31.5858C38.094 30.0359 35.5812 30.0359 34.0314 31.5858C32.4815 33.1356 29.9687 33.1356 28.4188 31.5858C26.8689 30.0359 24.3561 30.0359 22.8062 31.5858L22.8061 31.5858C21.2563 33.1357 18.7435 33.1357 17.1936 31.5858L17.1935 31.5858C15.6436 30.0359 13.1308 30.0359 11.5809 31.5858L11.5809 31.5858C10.031 33.1357 7.51817 33.1357 5.96829 31.5858L5.9682 31.5858C4.41832 30.0359 1.90552 30.0359 0.355641 31.5858L0.355553 31.5858C-0.419343 32.3607 -1.43506 32.7483 -2.45068 32.7483V37.9723C-2.45068 38.3216 -2.16751 38.6047 -1.8183 38.6047H41.8177C42.167 38.6047 42.4501 38.3215 42.4501 37.9723V32.7483H42.4502Z" fill="#50A7E2"/>
</g>
<defs>
<clipPath id="clip0_148_234">
<rect width="40" height="40" fill="white"/>
</clipPath>
</defs>
</svg>
